<?xml version="1.0" standalone="no"?>
<!DOCTYPE svg PUBLIC "-//W3C//DTD SVG 20010904//EN"
 "http://www.w3.org/TR/2001/REC-SVG-20010904/DTD/svg10.dtd">
<svg version="1.0" xmlns="http://www.w3.org/2000/svg"
 width="1040.000000pt" height="992.000000pt" viewBox="0 0 1040.000000 992.000000"
 preserveAspectRatio="xMidYMid meet">

<g transform="translate(0.000000,992.000000) scale(0.100000,-0.100000)"
fill="#D32F2F" stroke="none">
<path d="M5060 9795 c-19 -7 -80 -30 -135 -50 -55 -21 -113 -43 -130 -50 -16
-8 -86 -34 -155 -60 -112 -42 -177 -68 -277 -111 -17 -8 -34 -14 -38 -14 -7 0
-109 -45 -285 -127 -47 -22 -119 -55 -160 -74 -78 -35 -324 -159 -470 -237
-285 -151 -263 -139 -556 -312 -69 -41 -145 -86 -168 -99 -47 -27 -379 -244
-416 -272 -14 -10 -56 -40 -95 -65 -78 -53 -400 -295 -509 -383 -193 -156
-247 -201 -391 -331 -34 -30 -77 -68 -96 -84 -79 -68 -303 -279 -424 -401
-170 -171 -215 -220 -500 -535 -37 -41 -88 -102 -113 -135 l-45 -60 7 -120 c4
-66 11 -169 17 -230 5 -60 13 -159 18 -220 9 -99 18 -187 50 -480 12 -109 45
-333 67 -452 8 -49 22 -126 29 -173 14 -82 40 -223 71 -380 8 -41 21 -106 28
-145 14 -73 108 -457 130 -535 7 -25 21 -79 31 -120 10 -41 21 -79 25 -85 4
-5 11 -26 15 -45 4 -19 13 -53 20 -75 7 -22 17 -58 23 -80 19 -69 143 -459
153 -480 5 -11 20 -54 34 -95 107 -329 280 -758 460 -1145 228 -489 547 -1078
597 -1102 14 -7 70 -22 124 -33 55 -12 129 -27 167 -35 37 -8 71 -17 76 -20 5
-3 51 -12 103 -20 99 -15 226 -36 373 -60 50 -9 119 -20 155 -26 36 -6 90 -15
120 -20 30 -5 98 -13 150 -19 52 -6 119 -15 148 -20 29 -5 101 -12 160 -16 59
-3 121 -10 139 -15 17 -6 107 -14 200 -20 92 -5 204 -14 248 -19 156 -20 577
-33 1045 -34 563 -1 1012 18 1415 60 83 8 194 19 247 24 53 4 130 13 170 19
154 23 204 31 238 35 51 6 150 22 280 44 63 11 151 25 195 32 44 6 114 18 155
25 41 7 95 16 120 20 25 4 59 10 75 15 31 9 162 40 255 61 98 22 132 36 146
60 7 13 34 59 59 102 25 43 45 81 45 83 0 3 15 28 33 57 18 29 40 66 48 82 32
62 142 270 149 280 32 43 307 611 392 810 33 77 70 163 83 190 47 105 268 677
287 745 6 19 16 49 23 65 17 36 84 228 95 270 4 17 26 86 48 155 50 154 104
338 144 490 69 260 109 419 123 485 8 39 26 124 41 190 14 66 30 138 34 160 4
22 14 72 23 110 39 185 106 620 137 890 6 55 15 129 20 165 5 36 14 126 20
200 6 74 15 173 20 220 6 47 10 108 10 136 l0 51 -141 159 c-234 262 -617 646
-859 859 -19 17 -60 53 -91 80 -55 50 -118 105 -259 226 -41 36 -107 90 -146
121 -39 31 -77 63 -85 70 -30 30 -452 339 -614 450 -60 41 -130 89 -155 106
-62 42 -246 160 -284 182 -17 9 -69 41 -116 70 -47 29 -101 62 -120 73 -19 11
-78 45 -130 76 -52 31 -129 74 -170 95 -41 22 -104 56 -140 76 -124 70 -516
260 -820 397 -30 14 -78 36 -107 49 -28 13 -58 24 -65 24 -8 0 -18 4 -24 8
-12 11 -122 58 -209 89 -38 14 -83 31 -100 39 -16 7 -50 20 -75 29 -55 20
-215 77 -292 104 -66 24 -99 25 -148 6z m145 -451 c164 -62 204 -78 273 -110
41 -19 75 -34 78 -34 2 0 23 -9 47 -19 23 -11 78 -35 122 -54 106 -46 166 -72
252 -113 39 -19 74 -34 77 -34 8 0 471 -231 621 -309 120 -63 186 -100 324
-182 41 -24 93 -55 115 -68 257 -150 577 -356 741 -478 33 -24 105 -76 160
-116 55 -40 123 -90 151 -112 27 -22 88 -69 134 -105 85 -66 338 -275 466
-384 205 -176 592 -541 764 -721 31 -33 96 -100 144 -150 l87 -90 -4 -110 c-6
-153 -25 -366 -42 -455 -7 -41 -16 -106 -20 -145 -6 -71 -9 -91 -46 -315 -11
-69 -25 -150 -29 -180 -18 -111 -40 -227 -60 -320 -12 -52 -26 -122 -31 -155
-5 -33 -14 -73 -20 -90 -5 -16 -18 -68 -28 -115 -10 -47 -40 -166 -66 -265
-26 -99 -50 -191 -52 -205 -3 -14 -8 -34 -13 -45 -13 -32 -40 -126 -40 -139 0
-7 -8 -39 -19 -72 -10 -32 -26 -86 -36 -119 -16 -56 -48 -155 -64 -200 -4 -11
-34 -99 -66 -195 -32 -96 -63 -188 -70 -205 -7 -16 -20 -52 -30 -80 -40 -114
-142 -381 -156 -407 -8 -16 -69 -163 -125 -302 -13 -33 -30 -69 -37 -80 -7
-12 -21 -43 -32 -71 -42 -116 -343 -722 -441 -889 -13 -23 -49 -90 -80 -151
-31 -60 -59 -113 -63 -117 -8 -9 -19 -11 -291 -66 -107 -22 -253 -49 -325 -60
-71 -12 -159 -26 -195 -32 -36 -6 -105 -15 -155 -20 -49 -6 -136 -17 -191 -25
-56 -8 -119 -15 -140 -15 -22 0 -55 -5 -74 -11 -19 -6 -109 -17 -200 -25 -91
-7 -203 -18 -250 -24 -266 -35 -1058 -56 -1569 -41 -461 14 -512 16 -701 37
-80 8 -212 21 -295 29 -82 7 -159 16 -170 19 -11 3 -110 15 -220 27 -110 12
-229 25 -265 30 -36 4 -99 13 -140 18 -41 5 -102 15 -135 21 -131 24 -171 32
-205 40 -52 12 -257 52 -315 61 -133 21 -123 15 -175 114 -25 50 -75 144 -110
210 -66 125 -206 406 -255 510 -15 33 -44 96 -65 140 -47 98 -170 381 -170
390 0 3 -9 26 -20 50 -62 136 -194 495 -277 750 -25 77 -49 149 -53 160 -14
34 -27 77 -55 170 -15 50 -36 115 -46 145 -10 30 -29 98 -43 150 -14 52 -34
129 -45 170 -22 80 -60 231 -92 370 -11 47 -22 96 -25 110 -22 92 -78 365 -85
414 -5 33 -13 76 -18 95 -5 20 -15 72 -21 116 -6 44 -14 87 -17 95 -4 8 -12
58 -20 110 -7 52 -17 129 -23 170 -18 124 -28 207 -44 370 -16 152 -24 239
-46 508 l-11 133 88 102 c236 271 634 667 883 878 219 186 281 237 403 337
125 102 314 247 493 377 103 75 457 309 554 367 47 28 112 67 145 88 96 60
285 170 350 205 33 18 121 64 195 103 75 39 149 77 165 86 69 37 344 169 387
186 25 11 82 37 127 59 108 53 309 140 501 216 52 21 114 46 137 56 24 11 47
19 52 19 5 0 28 9 52 20 55 25 50 25 134 -6z"/>
<path d="M3225 8088 c-3 -18 -4 -298 -3 -623 l3 -590 190 0 190 0 3 228 2 227
190 0 190 0 2 -227 3 -228 190 0 190 0 3 600 c2 330 0 610 -3 623 -5 22 -7 22
-189 22 -158 0 -185 -2 -190 -16 -3 -9 -6 -108 -6 -220 l0 -204 -190 0 -190 0
0 204 c0 112 -3 211 -6 220 -5 14 -32 16 -190 16 l-183 0 -6 -32z"/>
<path d="M4560 8106 c-9 -11 -11 -157 -7 -614 2 -329 7 -604 11 -610 5 -9 60
-12 186 -12 l180 0 2 448 3 447 195 0 195 0 5 -445 5 -445 190 0 190 0 3 600
c1 330 0 610 -3 623 l-5 22 -569 0 c-484 0 -570 -2 -581 -14z"/>
<path d="M5905 8108 c-3 -7 -4 -287 -3 -623 l3 -610 188 -3 c146 -2 187 0 187
10 0 7 2 209 3 448 l2 435 203 3 202 2 0 -77 c2 -283 12 -800 15 -811 4 -10
47 -12 192 -10 l188 3 3 603 c1 404 -1 609 -8 623 -10 18 -26 19 -591 19 -454
0 -581 -3 -584 -12z"/>
<path d="M3300 5790 l0 -610 23 -5 c12 -3 96 -4 187 -3 l165 3 3 213 c2 186 4
214 19 219 17 7 40 -17 88 -87 14 -19 73 -105 132 -190 l108 -155 208 -3 c169
-2 207 0 207 11 0 21 -265 410 -397 585 l-32 43 56 77 c31 42 75 100 98 127
23 28 68 86 101 130 32 44 87 115 121 158 35 43 63 82 63 87 0 6 -81 10 -210
10 l-209 0 -78 -99 c-43 -54 -118 -153 -167 -220 -49 -66 -92 -121 -97 -121
-5 0 -10 98 -11 218 l-3 217 -187 3 -188 2 0 -610z"/>
<path d="M4547 6393 c-9 -8 -9 -1170 -1 -1200 6 -23 8 -23 189 -23 158 0 184
2 189 16 3 9 6 209 6 445 l0 429 198 -2 197 -3 1 -433 c0 -277 4 -436 10 -442
7 -7 79 -9 190 -8 l179 3 3 613 2 612 -578 0 c-318 0 -582 -3 -585 -7z"/>
<path d="M5902 5788 l3 -613 179 -3 c137 -2 181 1 188 10 4 7 8 99 8 204 0
172 2 193 18 208 24 21 16 30 176 -206 70 -103 134 -195 142 -203 13 -12 51
-15 225 -15 154 0 209 3 209 12 0 13 -59 103 -177 268 -46 63 -96 133 -111
155 -16 22 -57 77 -91 123 l-63 84 28 41 c15 23 62 87 106 142 181 230 298
386 298 395 0 6 -78 10 -209 10 l-208 0 -86 -112 c-47 -62 -121 -161 -164
-220 -43 -59 -81 -108 -85 -108 -5 0 -8 99 -8 220 l0 220 -190 0 -190 0 2
-612z"/>
<path d="M9380 5073 c-25 -2 -81 -10 -125 -18 -44 -8 -138 -24 -210 -35 -71
-11 -152 -25 -180 -30 -85 -15 -242 -38 -455 -65 -113 -14 -219 -30 -236 -36
-17 -5 -45 -9 -64 -9 -18 0 -60 -4 -94 -10 -114 -18 -231 -31 -351 -41 -393
-31 -738 -55 -910 -64 -66 -3 -147 -10 -180 -15 -215 -36 -1801 -46 -2450 -17
-209 10 -438 22 -510 27 -71 5 -202 15 -290 20 -665 44 -920 66 -1130 97 -55
8 -143 19 -195 24 -52 5 -123 13 -158 19 -34 5 -95 14 -135 20 -39 6 -97 16
-127 21 -51 9 -100 15 -300 39 -41 5 -91 14 -110 19 -65 18 -265 51 -303 51
-50 0 -45 -21 9 -36 21 -6 46 -13 54 -16 44 -17 657 -220 750 -248 41 -12 80
-26 85 -30 6 -4 64 -24 130 -44 271 -85 371 -118 387 -127 10 -5 23 -9 30 -9
7 0 87 -24 178 -54 91 -29 181 -57 200 -61 19 -4 51 -14 70 -23 49 -21 66 -27
145 -50 39 -11 158 -48 265 -82 107 -34 215 -68 240 -76 108 -32 255 -79 390
-123 80 -27 186 -60 235 -75 50 -15 131 -40 180 -56 50 -16 122 -39 160 -51
39 -12 108 -34 155 -49 47 -15 112 -35 145 -44 33 -10 89 -28 125 -41 36 -13
120 -40 187 -61 68 -22 122 -43 122 -49 -1 -5 -47 -53 -103 -105 -56 -52 -194
-184 -307 -293 -114 -109 -217 -207 -230 -218 -29 -25 -110 -101 -254 -239
-60 -58 -189 -179 -285 -270 -220 -208 -372 -353 -680 -647 -58 -55 -233 -221
-390 -368 -378 -356 -610 -584 -599 -590 7 -5 196 89 444 220 50 26 137 72
195 103 58 30 166 87 240 127 183 98 259 138 435 230 83 43 155 81 160 85 6 4
53 29 105 56 52 26 147 77 210 112 63 36 138 76 165 88 28 13 70 35 95 49 25
14 101 55 170 92 69 36 172 92 230 123 315 172 390 210 412 210 12 0 66 -24
118 -54 52 -30 145 -80 205 -111 61 -32 135 -72 165 -90 30 -17 107 -59 170
-92 170 -89 421 -223 455 -243 17 -10 77 -41 135 -70 58 -30 182 -95 275 -145
94 -51 220 -118 280 -150 61 -32 162 -85 225 -118 63 -33 174 -92 245 -132
197 -109 254 -140 325 -176 36 -18 100 -52 143 -76 43 -24 86 -43 95 -41 22 4
-115 149 -453 477 -66 64 -169 163 -230 221 -60 57 -185 176 -276 265 -211
204 -350 337 -469 449 -52 49 -149 142 -216 205 -288 277 -371 356 -752 720
-221 211 -402 389 -402 396 0 6 15 17 33 23 17 5 97 33 177 60 80 27 172 57
205 67 33 9 75 23 93 31 18 8 39 14 47 14 8 0 87 24 177 54 90 30 217 70 283
91 227 69 440 137 475 150 19 8 64 22 100 33 153 45 221 66 315 97 55 18 154
49 220 70 66 20 158 50 205 65 47 15 114 36 150 48 318 99 503 157 615 194 50
17 104 34 120 38 17 5 88 29 160 54 71 25 140 46 152 46 12 0 24 4 27 9 3 5
25 13 48 19 24 6 99 32 168 57 69 26 168 59 220 75 52 16 109 33 125 39 17 6
64 22 105 36 69 22 106 47 63 43 -10 -1 -38 -3 -63 -5z"/>
</g>
</svg>
