<svg width="32" height="32" viewBox="0 0 32 32" fill="none" xmlns="http://www.w3.org/2000/svg">
<path fill-rule="evenodd" clip-rule="evenodd" d="M14.1302 3.76128C14.4162 2.9244 15.5151 1.25 17.6926 1.25C19.9199 1.25 20.812 2.99082 20.9777 3.8639L20.9909 3.93322V26.7739C20.9909 27.5423 20.4316 28.0931 20.0255 28.403C19.7599 28.6056 19.4689 28.7747 19.2032 28.9053V30.25H22.2932V16.3329H27.0004V30.25H28V31.75H4V30.25H7.61953V29.3027C7.53957 29.2634 7.46485 29.2207 7.39613 29.1777C7.1326 29.0128 6.88872 28.7988 6.67764 28.585C6.25555 28.1574 5.89179 27.6558 5.68005 27.3177L5.56565 27.1351V9.83624L5.61785 9.70374C5.94173 8.88162 7.10764 7.29774 9.28237 7.29774C11.5001 7.29774 12.4696 8.9384 12.6747 9.80612L12.6948 9.89121V26.9196C12.6948 27.7174 12.1352 28.3062 11.6991 28.6537C11.4065 28.8869 11.0841 29.08 10.7931 29.2268V30.25H16.0297V28.9829C15.9619 28.9508 15.8976 28.9163 15.8374 28.881C15.5789 28.7295 15.3432 28.5326 15.1412 28.3359C14.7383 27.9437 14.3997 27.4839 14.2043 27.172L14.0899 26.9894V3.87918L14.1302 3.76128ZM17.5297 30.25H17.7032V27.8896L18.195 27.7092C18.4415 27.6188 18.8172 27.4381 19.1156 27.2105C19.4543 26.952 19.4909 26.7923 19.4909 26.7739V4.08305C19.3744 3.60444 18.882 2.75 17.6926 2.75C16.4861 2.75 15.8123 3.62045 15.5899 4.14179V26.5482C15.7421 26.7665 15.9549 27.0347 16.1875 27.2611C16.3364 27.406 16.4758 27.5165 16.596 27.587C16.6548 27.6215 16.7011 27.6417 16.7347 27.6527C16.7649 27.6626 16.7791 27.6633 16.7799 27.6633H17.5297V30.25ZM9.29307 30.25V28.2254L9.77473 28.0409C10.0385 27.9398 10.442 27.7375 10.7642 27.4807C11.1205 27.1967 11.1948 26.9962 11.1948 26.9196V10.078C11.0564 9.63229 10.5225 8.79774 9.28237 8.79774C8.03196 8.79774 7.31313 9.64149 7.06565 10.1373V26.6958C7.23884 26.9494 7.48259 27.2653 7.74511 27.5312C7.90867 27.6969 8.0613 27.8245 8.19191 27.9062C8.31543 27.9835 8.37244 27.9906 8.37237 27.9912C8.37237 27.9912 8.37262 27.9912 8.37237 27.9912L9.11953 27.9912V30.25H9.29307ZM25.5004 30.25V17.8329H23.7932V30.25H25.5004Z" fill="#0088CC"/>
</svg>
