<svg width="32" height="33" viewBox="0 0 32 33" fill="none" xmlns="http://www.w3.org/2000/svg">
<path fill-rule="evenodd" clip-rule="evenodd" d="M19.0303 32.1346H12.9697V30.6346H19.0303V32.1346Z" fill="#0088CC"/>
<path fill-rule="evenodd" clip-rule="evenodd" d="M17.4541 31.0418L24.7268 16.888L26.061 17.5735L18.7883 31.7274L17.4541 31.0418ZM7.27314 16.888L14.5459 31.0418L13.2117 31.7274L5.93896 17.5735L7.27314 16.888Z" fill="#0088CC"/>
<path fill-rule="evenodd" clip-rule="evenodd" d="M24.5 5.89286H7.5V9.85714H24.5V5.89286ZM24.5 4.39286H7.5V1.5H24.5V4.39286ZM26 18H6V0H26V18ZM7.5 11.3571V16.5H24.5V11.3571H7.5Z" fill="#0088CC"/>
<path fill-rule="evenodd" clip-rule="evenodd" d="M9.5 4.5H12.5V11H11.5V5.5H10.5V11H9.5V4.5Z" fill="#0088CC"/>
<path fill-rule="evenodd" clip-rule="evenodd" d="M14.5 4.5H17.5V11H16.5V5.5H15.5V11H14.5V4.5Z" fill="#0088CC"/>
<path fill-rule="evenodd" clip-rule="evenodd" d="M19.5 4.5H22.5V11H21.5V5.5H20.5V11H19.5V4.5Z" fill="#0088CC"/>
</svg>
