<svg width="32" height="32" viewBox="0 0 32 32" fill="none" xmlns="http://www.w3.org/2000/svg">
<path fill-rule="evenodd" clip-rule="evenodd" d="M0.25 5.25H27.75V6C27.75 7.76854 27.0082 8.9002 25.9934 9.52734C25.3503 9.92478 24.6373 10.0959 24.0144 10.1394V23.0411C25.0898 23.1078 25.9163 23.3303 26.5229 23.7532C27.3124 24.3036 27.594 25.0931 27.6937 25.8774C27.7402 26.2428 27.75 26.6249 27.75 27V27.75H0.25V5.25ZM24.0144 24.5446V26.25H26.225C26.2196 26.187 26.2133 26.1259 26.2057 26.0667C26.1351 25.5117 25.9751 25.1998 25.665 24.9836C25.3796 24.7846 24.8853 24.6084 24.0144 24.5446ZM22.5144 26.25V6.75H1.75V26.25H22.5144ZM24.0144 6.75V8.63428C24.4073 8.5941 24.8359 8.47934 25.2049 8.25133C25.6287 7.98941 26.0291 7.54639 26.1833 6.75H24.0144Z" fill="#0088CC"/>
<path fill-rule="evenodd" clip-rule="evenodd" d="M28.7276 6.82481C28.0305 6.60977 27.2057 6.5 26.5 6.5V5.5C27.2943 5.5 28.2195 5.62158 29.0224 5.86924C29.4243 5.99322 29.8099 6.15317 30.1375 6.35527C30.4413 6.54265 30.721 6.78227 30.9042 7.0877C31.0495 7.25402 31.1369 7.47263 31.1957 7.65978C31.2694 7.89402 31.3262 8.1752 31.3699 8.47983C31.4577 9.09104 31.5 9.84883 31.5 10.627C31.5 12.0309 31.3743 15.7862 30.9335 19.2402C30.7135 20.964 30.412 22.6384 29.9991 23.9133C29.7934 24.5487 29.5511 25.1132 29.2594 25.5398C28.9733 25.9583 28.5846 26.3222 28.0664 26.3916C27.5694 26.4583 27.0871 26.4975 26.7005 26.4999C26.5087 26.5011 26.327 26.4933 26.1733 26.4714C26.0966 26.4605 26.0151 26.4445 25.9372 26.4191C25.8674 26.3964 25.7573 26.3527 25.6604 26.263L26.3396 25.5291C26.297 25.4896 26.2594 25.4729 26.2483 25.4687C26.2547 25.4706 26.2752 25.4759 26.3144 25.4814C26.3996 25.4936 26.5268 25.5009 26.6943 25.4999C27.0263 25.4978 27.4644 25.4634 27.9336 25.4005C28.0404 25.3862 28.2142 25.2968 28.4339 24.9754C28.6481 24.6621 28.8551 24.2002 29.0478 23.6052C29.4317 22.4196 29.724 20.8182 29.9415 19.1136C30.3757 15.711 30.5 11.9993 30.5 10.627C30.5 9.87894 30.459 9.17152 30.3801 8.62195C30.3405 8.34619 30.2931 8.12309 30.2418 7.95959C30.1924 7.80249 30.1549 7.75242 30.1561 7.75145C30.1563 7.75132 30.1571 7.75206 30.1588 7.75355L30.0995 7.69874L30.0601 7.62578C29.9914 7.49865 29.8508 7.35335 29.6125 7.20634C29.3776 7.06141 29.0757 6.93218 28.7276 6.82481ZM26.2468 25.4682C26.2437 25.4672 26.2445 25.4672 26.2483 25.4687L26.2468 25.4682Z" fill="#0088CC"/>
<path fill-rule="evenodd" clip-rule="evenodd" d="M12.5 15.5H8.5V19.5H12.5V15.5ZM7 14V21H14V14H7Z" fill="#0088CC"/>
</svg>
