<svg width="33" height="32" viewBox="0 0 33 32" fill="none" xmlns="http://www.w3.org/2000/svg">
<path fill-rule="evenodd" clip-rule="evenodd" d="M20.6578 9.34749L19.8755 14.8011L18.8856 14.6591L19.6679 9.20551L20.6578 9.34749ZM15.2398 10.1195L18.6415 14.8179L17.8315 15.4044L14.4298 10.7059L15.2398 10.1195ZM20.0333 16.0399L19.3556 16.4326L18.8542 15.5674L24.5742 12.2524L25.0756 13.1176L20.27 15.9027L25.818 17.7288L25.5053 18.6787L19.7845 16.7957L20.0333 16.0399ZM17.3421 16.4934L11.9304 15.6045L12.0925 14.6177L17.5042 15.5066L17.3421 16.4934ZM17.9139 17.5738L12.9874 20.6573L12.4568 19.8096L17.3833 16.7261L17.9139 17.5738ZM21.9385 23.1399L19.1558 17.7484L20.0445 17.2897L22.8272 22.6813L21.9385 23.1399ZM16.3934 23.3934L18.0816 17.5317L19.0425 17.8084L17.3543 23.6702L16.3934 23.3934Z" fill="#0088CC"/>
<path fill-rule="evenodd" clip-rule="evenodd" d="M0.981445 1.02777H13.3648V2.98962C14.4794 2.74671 15.6405 2.61841 16.8329 2.61841C20.9533 2.61841 24.7481 3.79325 27.5253 6.1797C30.3178 8.57931 32.013 12.1466 32.013 16.7753C32.013 20.6708 30.5497 24.1665 27.8942 26.6858C25.2392 29.2045 21.4385 30.7049 16.8329 30.7049C9.08396 30.7049 3.28324 25.1592 1.66998 16.9362C1.43797 15.9824 1.36002 15.3311 1.21263 13.8979C1.13417 13.135 1.07893 10.0749 1.04226 7.26961C1.02374 5.85281 1.00986 4.48125 1.0006 3.464C0.995975 2.95534 0.992504 2.53519 0.99019 2.24216L0.986719 1.78351C0.986719 1.78342 0.986716 1.783 1.7367 1.77777L0.986719 1.78351L0.981445 1.02777ZM2.49254 2.52777C2.49464 2.78328 2.49731 3.0952 2.50054 3.45035C2.50979 4.46639 2.52365 5.83584 2.54213 7.25001C2.57947 10.1066 2.63522 13.0683 2.70476 13.7445C2.8525 15.1811 2.92251 15.7425 3.13129 16.5973L3.13543 16.6143L3.13878 16.6314C4.63825 24.3055 9.93497 29.2049 16.8329 29.2049C21.1073 29.2049 24.5217 27.8176 26.8618 25.5976C29.2013 23.3782 30.513 20.2841 30.513 16.7753C30.513 12.5417 28.9779 9.40564 26.5477 7.31737C24.1022 5.21592 20.6819 4.11841 16.8329 4.11841C15.4349 4.11841 14.0874 4.31227 12.8194 4.67181L11.8648 4.94248V2.52777H2.49254Z" fill="#0088CC"/>
<path fill-rule="evenodd" clip-rule="evenodd" d="M18.831 22.774C22.1386 22.774 24.8791 20.0197 24.8791 16.548C24.8791 13.0764 22.1386 10.322 18.831 10.322C15.5235 10.322 12.783 13.0764 12.783 16.548C12.783 20.0197 15.5235 22.774 18.831 22.774ZM18.831 24.274C22.9997 24.274 26.3791 20.8149 26.3791 16.548C26.3791 12.2811 22.9997 8.82202 18.831 8.82202C14.6624 8.82202 11.283 12.2811 11.283 16.548C11.283 20.8149 14.6624 24.274 18.831 24.274Z" fill="#0088CC"/>
<path d="M21.0031 16.3726C21.0031 17.5378 20.0803 18.4823 18.942 18.4823C17.8037 18.4823 16.8809 17.5378 16.8809 16.3726C16.8809 15.2074 17.8037 14.2629 18.942 14.2629C20.0803 14.2629 21.0031 15.2074 21.0031 16.3726Z" fill="white"/>
<path fill-rule="evenodd" clip-rule="evenodd" d="M18.942 16.9823C19.2192 16.9823 19.5031 16.7425 19.5031 16.3726C19.5031 16.0027 19.2192 15.7629 18.942 15.7629C18.6648 15.7629 18.3809 16.0027 18.3809 16.3726C18.3809 16.7425 18.6648 16.9823 18.942 16.9823ZM18.942 18.4823C20.0803 18.4823 21.0031 17.5378 21.0031 16.3726C21.0031 15.2074 20.0803 14.2629 18.942 14.2629C17.8037 14.2629 16.8809 15.2074 16.8809 16.3726C16.8809 17.5378 17.8037 18.4823 18.942 18.4823Z" fill="#0088CC"/>
</svg>
