<svg width="32" height="32" viewBox="0 0 32 32" fill="none" xmlns="http://www.w3.org/2000/svg">
<path fill-rule="evenodd" clip-rule="evenodd" d="M10 31.75V30.25H21V31.75H10Z" fill="#0088CC"/>
<path fill-rule="evenodd" clip-rule="evenodd" d="M9.01562 0.4125V0H7.51562V9.10625H9.01562V8.5H9.08408V20.6922L13.6546 31.2969L15.0321 30.7031L10.974 21.2875H19.7281L15.8075 30.7119L17.1925 31.2881L24.4452 13.8539C24.4454 13.8533 24.4456 13.8528 24.4459 13.8523C24.7854 13.0464 25.4844 10.9997 25.4844 9.3C25.4844 8.13164 25.2515 6.97493 24.7993 5.89599C24.347 4.81708 23.6845 3.83733 22.8498 3.01246C22.0151 2.18761 21.0247 1.53376 19.9353 1.08783C18.8459 0.641905 17.6786 0.4125 16.5 0.4125H9.01562ZM20.3521 19.7875L23.0616 13.2744L23.063 13.2711C23.3772 12.5258 23.9844 10.6991 23.9844 9.3C23.9844 8.3311 23.7913 7.37147 23.4159 6.47584C23.0405 5.58018 22.49 4.76578 21.7954 4.07938C21.1008 3.39296 20.2757 2.84799 19.367 2.47603C18.4583 2.10406 17.4841 1.9125 16.5 1.9125H9.01562V7H10.5841V19.7875H20.3521Z" fill="#0088CC"/>
<path fill-rule="evenodd" clip-rule="evenodd" d="M16.1079 12.45C17.6784 12.45 18.9212 11.1965 18.9212 9.68752C18.9212 8.17852 17.6784 6.92502 16.1079 6.92502C14.5374 6.92502 13.2947 8.17852 13.2947 9.68752C13.2947 11.1965 14.5374 12.45 16.1079 12.45ZM16.1079 13.95C18.4901 13.95 20.4212 12.0416 20.4212 9.68752C20.4212 7.3334 18.4901 5.42502 16.1079 5.42502C13.7258 5.42502 11.7947 7.3334 11.7947 9.68752C11.7947 12.0416 13.7258 13.95 16.1079 13.95Z" fill="#0088CC"/>
</svg>
