<svg width="26" height="30" viewBox="0 0 26 30" fill="none" xmlns="http://www.w3.org/2000/svg">
<path fill-rule="evenodd" clip-rule="evenodd" d="M0.25 0.75H25.25V24.25H21.75V29.75H3.25V24.25H0.25V0.75ZM4.75 24.25V28.25H20.25V24.25H4.75ZM1.75 2.25V16.25H23.75V2.25H1.75ZM23.75 17.75H1.75V22.75H23.75V17.75Z" fill="#0088CC"/>
<path fill-rule="evenodd" clip-rule="evenodd" d="M6.5 17V1.5H7.5V17H6.5ZM11.5 17V1.5H12.5V17H11.5ZM16 17V1.5H17V17H16ZM20.5 17V1.5H21.5V17H20.5Z" fill="#0088CC"/>
<path fill-rule="evenodd" clip-rule="evenodd" d="M4.5 17.5V2H5.5V17.5H4.5ZM9.5 17.5V2H10.5V17.5H9.5ZM14 17.5V2H15V17.5H14ZM18.5 17.5V2H19.5V17.5H18.5Z" fill="#0088CC"/>
<path fill-rule="evenodd" clip-rule="evenodd" d="M8.5 18.8008H17.5V21.8008H8.5V18.8008ZM9.5 19.8008V20.8008H16.5V19.8008H9.5Z" fill="#0088CC"/>
</svg>
