<svg width="32" height="32" viewBox="0 0 32 32" fill="none" xmlns="http://www.w3.org/2000/svg">
<path fill-rule="evenodd" clip-rule="evenodd" d="M11.5013 9.45616C9.67214 9.79018 7.11086 10.5207 4.93336 11.3919C3.74872 11.8659 2.64115 12.3958 1.81666 12.946C1.40574 13.2203 1.03529 13.5191 0.760018 13.842C0.490917 14.1577 0.25 14.5709 0.25 15.0588C0.25 15.5407 0.530589 15.9036 0.781636 16.1379C1.04461 16.3833 1.38931 16.5963 1.7585 16.7832C2.50251 17.1597 3.50046 17.506 4.5727 17.8098C6.47338 18.3484 8.71898 18.7842 10.4674 19.0168V24.75H21.6786V19.0155C23.4018 18.7826 25.6124 18.3471 27.484 17.809C28.5414 17.5051 29.5264 17.1584 30.2611 16.7812C30.6257 16.594 30.9665 16.3804 31.2265 16.1342C31.4755 15.8984 31.75 15.5364 31.75 15.0588C31.75 14.5745 31.5141 14.1626 31.2481 13.8461C30.9765 13.5228 30.6108 13.2235 30.2051 12.9488C29.3913 12.3978 28.2986 11.8675 27.1303 11.3933C24.9908 10.5249 22.4755 9.79613 20.6722 9.46017C20.243 8.38082 18.8896 7.25 16.2143 7.25C13.5511 7.25 11.9916 8.35182 11.5013 9.45616ZM18.7232 9.36765C18.2751 9.04309 17.5089 8.75 16.2143 8.75C14.8919 8.75 14.0655 9.04378 13.561 9.36765H18.7232ZM20.0122 10.8676H12.1453C10.4322 11.1396 7.74984 11.8806 5.49055 12.7846C4.3473 13.242 3.34889 13.7268 2.64937 14.1937C2.29829 14.428 2.05223 14.6384 1.9015 14.8152C1.8269 14.9027 1.78899 14.966 1.76974 15.0064C1.77934 15.0165 1.79101 15.0281 1.80515 15.0413C1.92063 15.1491 2.12451 15.2872 2.4358 15.4448C3.05275 15.757 3.94338 16.0724 4.98164 16.3666C7.04478 16.9513 9.55093 17.4134 11.287 17.6061C11.7619 17.6413 12.9092 17.6422 13.9823 17.6324C14.5143 17.6275 15.015 17.6202 15.3829 17.6141C15.5668 17.611 15.7174 17.6083 15.8219 17.6063L15.9838 17.6031C15.9838 17.6031 15.9844 17.6031 16 18.3529L16.015 17.6031L16.1844 17.6063C16.2933 17.6083 16.4501 17.611 16.6414 17.6141C17.0242 17.6202 17.5447 17.6275 18.0959 17.6324C19.2079 17.6422 20.39 17.6413 20.858 17.6062C22.5681 17.4136 25.0371 16.9517 27.0696 16.3674C28.0925 16.0734 28.9692 15.7583 29.576 15.4468C29.8821 15.2896 30.0821 15.1521 30.1951 15.045C30.2101 15.0308 30.2223 15.0184 30.2322 15.0078C30.2137 14.967 30.1761 14.9019 30.0998 14.8111C29.9515 14.6347 29.7096 14.4248 29.3641 14.1909C28.6756 13.7247 27.6925 13.2404 26.5661 12.7832C24.3408 11.8799 21.6992 11.1395 20.0122 10.8676ZM20.1786 19.1309C19.5688 19.1412 18.7885 19.1386 18.0826 19.1323C17.5268 19.1274 17.0026 19.12 16.6175 19.1139C16.4249 19.1108 16.267 19.108 16.1571 19.106L16.0003 19.1031L15.8503 19.106C15.7448 19.108 15.593 19.1108 15.4078 19.1139C15.0375 19.12 14.5328 19.1274 13.996 19.1323C13.3167 19.1386 12.5637 19.1412 11.9674 19.131V23.25H20.1786V19.1309ZM16 18.3529L16.015 17.6031L15.9997 17.6028L15.9838 17.6031L16 18.3529Z" fill="#0088CC"/>
</svg>
