<svg width="32" height="34" viewBox="0 0 32 34" fill="none" xmlns="http://www.w3.org/2000/svg">
<path fill-rule="evenodd" clip-rule="evenodd" d="M28.9998 33.0438H3.80811V31.5438H28.9998V33.0438Z" fill="#0088CC"/>
<path fill-rule="evenodd" clip-rule="evenodd" d="M16.3254 30.7937C17.9269 30.7937 19.3127 29.435 19.3127 27.649C19.3127 25.8631 17.9269 24.5043 16.3254 24.5043C14.7239 24.5043 13.3381 25.8631 13.3381 27.649C13.3381 29.435 14.7239 30.7937 16.3254 30.7937ZM16.3254 32.2937C18.8036 32.2937 20.8127 30.2142 20.8127 27.649C20.8127 25.0838 18.8036 23.0043 16.3254 23.0043C13.8472 23.0043 11.8381 25.0838 11.8381 27.649C11.8381 30.2142 13.8472 32.2937 16.3254 32.2937Z" fill="#0088CC"/>
<path fill-rule="evenodd" clip-rule="evenodd" d="M16.4825 7.80635C17.8175 7.80635 18.9974 6.66479 18.9974 5.13398C18.9974 3.60316 17.8175 2.46161 16.4825 2.46161C15.1474 2.46161 13.9675 3.60316 13.9675 5.13398C13.9675 6.66479 15.1474 7.80635 16.4825 7.80635ZM16.4825 9.30635C18.6998 9.30635 20.4974 7.43831 20.4974 5.13398C20.4974 2.82964 18.6998 0.961609 16.4825 0.961609C14.2651 0.961609 12.4675 2.82964 12.4675 5.13398C12.4675 7.43831 14.2651 9.30635 16.4825 9.30635Z" fill="#0088CC"/>
<path fill-rule="evenodd" clip-rule="evenodd" d="M8.73509 5.89488C7.6385 6.78784 6.83838 7.85818 6.36754 8.59688C5.3934 10.1252 4.63346 12.7356 4.63346 15C4.63346 15.4908 4.639 16.0798 4.64537 16.7565C4.66144 18.4636 4.68276 20.7288 4.63358 23.3841C4.61129 24.5879 4.9198 25.5471 5.49428 26.2802C6.06202 27.0046 6.83588 27.4397 7.6276 27.7018C9.11528 28.1942 10.8492 28.1283 11.8964 28.0885C11.9402 28.0868 11.9827 28.0852 12.024 28.0837L11.9685 26.5847L11.9139 26.5867C10.8221 26.6273 9.32324 26.683 8.09893 26.2778C7.4933 26.0773 7.00757 25.7794 6.6749 25.3549C6.34898 24.939 6.11626 24.3336 6.13333 23.4119C6.18292 20.734 6.16123 18.4264 6.14515 16.7158C6.13887 16.0485 6.13346 15.4721 6.13346 15C6.13346 12.992 6.82688 10.667 7.63245 9.40311C8.05147 8.74571 8.75135 7.81605 9.68224 7.05803C10.6116 6.30125 11.7269 5.74999 12.9997 5.75L12.9998 4.25C11.2729 4.24999 9.8332 5.00068 8.73509 5.89488Z" fill="#0088CC"/>
<path fill-rule="evenodd" clip-rule="evenodd" d="M23.8574 5.89488C24.954 6.78784 25.7542 7.85818 26.225 8.59688C27.1991 10.1252 27.9591 12.7356 27.9591 15C27.9591 15.4908 27.9535 16.0798 27.9472 16.7565C27.9311 18.4636 27.9098 20.7288 27.9589 23.3841C27.9812 24.5879 27.6727 25.5471 27.0982 26.2802C26.5305 27.0046 25.7567 27.4397 24.9649 27.7018C23.4773 28.1942 21.7434 28.1283 20.6961 28.0885C20.6524 28.0868 20.6098 28.0852 20.5685 28.0837L20.624 26.5847L20.6786 26.5867C21.7704 26.6273 23.2693 26.683 24.4936 26.2778C25.0992 26.0773 25.585 25.7794 25.9176 25.3549C26.2435 24.939 26.4763 24.3336 26.4592 23.4119C26.4096 20.734 26.4313 18.4264 26.4474 16.7158C26.4537 16.0485 26.4591 15.4721 26.4591 15C26.4591 12.992 25.7657 10.667 24.9601 9.40311C24.5411 8.74571 23.8412 7.81605 22.9103 7.05803C21.9809 6.30125 20.8657 5.74999 19.5928 5.75L19.5928 4.25C21.3196 4.24999 22.7593 5.00068 23.8574 5.89488Z" fill="#0088CC"/>
<path fill-rule="evenodd" clip-rule="evenodd" d="M24.6578 15.9704C24.6545 14.4899 24.3993 12.2561 23.623 10.3097C22.849 8.36899 21.4577 6.49652 19.0761 6.25388L18.9241 7.74615C20.4687 7.90351 21.5313 9.11437 22.2297 10.8654C22.9205 12.5975 23.1579 14.6469 23.1579 16V16.0292L23.1601 16.0583C23.1678 16.1565 23.1758 16.2573 23.184 16.3605C23.2745 17.5024 23.3878 18.9321 23.313 20.2706C23.2723 20.9978 23.1772 21.6666 23.006 22.2258C22.8338 22.7884 22.6002 23.1888 22.3182 23.4401C21.8976 23.8151 21.2862 24.0312 20.6263 24.1434C19.9969 24.2503 19.4062 24.2501 19.0354 24.25C19.0234 24.25 19.0116 24.25 19.0001 24.25V25.75C19.0154 25.75 19.0314 25.75 19.048 25.75C19.4213 25.7503 20.1205 25.7508 20.8776 25.6221C21.6583 25.4895 22.5919 25.2056 23.3163 24.5599C23.8757 24.0612 24.2219 23.3783 24.4403 22.6649C24.6598 21.948 24.7663 21.1481 24.8106 20.3544C24.8915 18.9084 24.7698 17.3789 24.6799 16.2497C24.6723 16.1536 24.6649 16.0604 24.6578 15.9704Z" fill="#0088CC"/>
<path fill-rule="evenodd" clip-rule="evenodd" d="M8.34216 15.9704C8.34552 14.4899 8.60074 12.2561 9.37704 10.3097C10.151 8.36899 11.5423 6.49652 13.9239 6.25388L14.0759 7.74615C12.5313 7.90351 11.4687 9.11437 10.7703 10.8654C10.0795 12.5975 9.84212 14.6469 9.84212 16V16.0292L9.83986 16.0583C9.83221 16.1565 9.82422 16.2573 9.81604 16.3605C9.72553 17.5024 9.61221 18.9321 9.68704 20.2706C9.72769 20.9978 9.82279 21.6666 9.99397 22.2258C10.1662 22.7884 10.3998 23.1888 10.6818 23.4401C11.1024 23.8151 11.7138 24.0312 12.3737 24.1434C13.0031 24.2503 13.5938 24.2501 13.9646 24.25C13.9766 24.25 13.9884 24.25 13.9999 24.25V25.75C13.9846 25.75 13.9686 25.75 13.952 25.75C13.5787 25.7503 12.8795 25.7508 12.1224 25.6221C11.3417 25.4895 10.4081 25.2056 9.6837 24.5599C9.12425 24.0612 8.77809 23.3783 8.55968 22.6649C8.34021 21.948 8.23375 21.1481 8.18938 20.3544C8.10854 18.9084 8.23022 17.3789 8.32005 16.2497C8.3277 16.1536 8.33512 16.0604 8.34216 15.9704Z" fill="#0088CC"/>
<path fill-rule="evenodd" clip-rule="evenodd" d="M19.7501 13C19.7501 10.6173 18.057 9.47619 17.2629 9.21151L17.7373 7.78848C18.9432 8.19046 21.2501 9.78273 21.2501 13C21.2501 13.5329 21.2733 14.1228 21.2987 14.7674C21.3145 15.1685 21.3312 15.5908 21.3436 16.0337C21.3751 17.1604 21.3764 18.3749 21.2453 19.5227C20.9898 21.7575 20.1795 24.1032 17.682 24.7276L17.3182 23.2724C18.8207 22.8968 19.5104 21.4924 19.755 19.3523C19.8738 18.3126 19.8751 17.1833 19.8442 16.0757C19.833 15.6753 19.8171 15.2707 19.8017 14.8749C19.7754 14.2033 19.7501 13.5571 19.7501 13Z" fill="#0088CC"/>
<path fill-rule="evenodd" clip-rule="evenodd" d="M13.2499 13C13.2499 10.6173 14.943 9.47619 15.7371 9.21151L15.2627 7.78848C14.0568 8.19046 11.7499 9.78273 11.7499 13C11.7499 13.5329 11.7267 14.1228 11.7013 14.7674C11.6855 15.1685 11.6688 15.5908 11.6564 16.0337C11.6249 17.1604 11.6236 18.3749 11.7547 19.5227C12.0102 21.7575 12.8205 24.1032 15.318 24.7276L15.6818 23.2724C14.1793 22.8968 13.4896 21.4924 13.245 19.3523C13.1262 18.3126 13.1249 17.1833 13.1558 16.0757C13.167 15.6753 13.1829 15.2707 13.1983 14.8749C13.2246 14.2033 13.2499 13.5571 13.2499 13Z" fill="#0088CC"/>
<path fill-rule="evenodd" clip-rule="evenodd" d="M15.75 24V8.5H17.25V24H15.75Z" fill="#0088CC"/>
</svg>
