<svg width="33" height="32" viewBox="0 0 33 32" fill="none" xmlns="http://www.w3.org/2000/svg">
<path fill-rule="evenodd" clip-rule="evenodd" d="M29.7498 7V24.4375H28.2498V21.25H27.9824L25.0355 23.6673V23.9688H25.7141V25.4688H13.1427V23.9688H14.7499V19H13.607V19.4688H13.9998V20.9688H7.99983V19.4688H8.39268V18.1562H7.71411V17.9688H6.96411V12.625H8.46411V12.7188H13.5355V11.875H15.2498V10.8438H14.5713V9.34375H21.4999V10.8438H21.0355V12.1569L23.0421 9.34375H28.2498V7H29.7498ZM28.2498 10.8438H23.8147L19.5355 16.8431V10.8438H16.7498V13.375H15.0355V17.5H16.2499V23.9688H23.5355V22.9577L27.4459 19.75H28.2498V10.8438ZM13.5355 16.6562V14.2188H8.46411V16.6562H9.89268V19.4688H12.107V16.6562H13.5355Z" fill="#0088CC"/>
<path fill-rule="evenodd" clip-rule="evenodd" d="M0.5 13.5H8V14.5H1.5V16.02H3.93144L7.99617 15.9889L8.00383 16.9889L4.43333 17.0162V21H3.43333V17.02H0.5V13.5Z" fill="#0088CC"/>
<path fill-rule="evenodd" clip-rule="evenodd" d="M29 10.5V9.5H32.5V20.5H29V19.5H31.5V10.5H29Z" fill="#0088CC"/>
</svg>
